<svg
  width="220"
  height="57"
  viewBox="75 0 220 57"
  xmlns="http://www.w3.org/2000/svg"
  xmlns:xlink="http://www.w3.org/1999/xlink"
>
							<defs>
								<path id="a" d="M9.935 12.978V.338H.601v12.64h9.334z" />
							</defs>
							<g fill="none" fill-rule="evenodd">
								<path
      d="M0 1.208a1.22 1.22 0 1 0 2.44.025A1.22 1.22 0 1 0 0 1.208M0 8.97a1.22 1.22 0 1 0 2.44.026A1.22 1.22 0 0 0 0 8.969m0 7.761a1.219 1.219 0 0 0 1.207 1.233A1.22 1.22 0 1 0 0 16.73m0 7.762a1.22 1.22 0 1 0 2.44.026A1.22 1.22 0 1 0 0 24.492m0 7.762a1.22 1.22 0 1 0 2.44.025A1.22 1.22 0 1 0 0 32.254m0 7.761a1.22 1.22 0 1 0 2.44.027A1.22 1.22 0 0 0 0 40.015m0 7.762a1.22 1.22 0 1 0 2.44.027A1.22 1.22 0 0 0 0 47.777m0 7.761a1.219 1.219 0 0 0 1.207 1.233A1.22 1.22 0 1 0 0 55.538m7.75-54.33a1.22 1.22 0 1 0 2.44.026 1.22 1.22 0 0 0-2.44-.026M6.53 8.957a2.442 2.442 0 1 0 4.88.048 2.442 2.442 0 0 0-4.88-.048m0 7.761a2.44 2.44 0 1 0 4.882.052 2.44 2.44 0 1 0-4.882-.052m0 7.762a2.44 2.44 0 1 0 4.88.052 2.44 2.44 0 0 0-4.88-.053m0 7.762a2.441 2.441 0 1 0 4.882.052 2.441 2.441 0 0 0-4.882-.052m0 7.762a2.442 2.442 0 0 0 4.882.051 2.441 2.441 0 0 0-4.882-.051m0 7.76a2.44 2.44 0 1 0 4.882.052 2.44 2.44 0 1 0-4.882-.052m1.22 7.775a1.218 1.218 0 0 0 1.207 1.233 1.22 1.22 0 1 0-1.207-1.233m7.75-54.33a1.22 1.22 0 1 0 2.44.026 1.22 1.22 0 0 0-2.44-.026m-1.22 7.749a2.442 2.442 0 1 0 4.88.048 2.442 2.442 0 0 0-4.88-.048m0 7.761a2.44 2.44 0 0 0 2.415 2.466 2.443 2.443 0 0 0 2.467-2.415 2.44 2.44 0 1 0-4.882-.052m0 7.763a2.44 2.44 0 1 0 4.882.051 2.441 2.441 0 0 0-4.882-.052m0 7.762a2.44 2.44 0 1 0 4.88.053 2.44 2.44 0 0 0-4.88-.053m0 7.762a2.442 2.442 0 0 0 4.882.051 2.441 2.441 0 0 0-4.882-.051m0 7.76a2.442 2.442 0 1 0 4.88.05 2.442 2.442 0 0 0-4.88-.05m1.22 7.775a1.22 1.22 0 0 0 1.207 1.233 1.22 1.22 0 1 0-1.208-1.233m7.751-54.33a1.22 1.22 0 1 0 2.44.026 1.22 1.22 0 0 0-2.44-.026m0 7.762a1.22 1.22 0 1 0 2.44.024 1.22 1.22 0 0 0-2.44-.024m0 7.76a1.22 1.22 0 0 0 1.207 1.233 1.221 1.221 0 1 0-1.208-1.233m-1.219 7.75a2.44 2.44 0 1 0 4.882.051 2.442 2.442 0 0 0-4.882-.052m0 7.762a2.44 2.44 0 1 0 4.88.053 2.44 2.44 0 0 0-4.88-.053m1.22 7.774a1.22 1.22 0 1 0 2.44.025 1.22 1.22 0 0 0-2.44-.025m0 7.762a1.22 1.22 0 1 0 2.44.025 1.22 1.22 0 0 0-2.44-.025m0 7.761a1.22 1.22 0 0 0 1.207 1.233 1.22 1.22 0 1 0-1.208-1.233M31 1.208a1.22 1.22 0 1 0 2.44.026A1.22 1.22 0 0 0 31 1.208m0 7.762a1.22 1.22 0 1 0 2.44.024A1.22 1.22 0 0 0 31 8.97m0 7.76a1.22 1.22 0 1 0 2.44.026A1.221 1.221 0 0 0 31 16.73m-1.221 7.75a2.442 2.442 0 1 0 4.882.05 2.442 2.442 0 0 0-4.882-.05m0 7.761a2.442 2.442 0 1 0 4.884.05 2.442 2.442 0 0 0-4.884-.05M31 40.015a1.22 1.22 0 1 0 2.44.025 1.22 1.22 0 0 0-2.44-.025m0 7.762a1.22 1.22 0 1 0 2.44.025 1.22 1.22 0 0 0-2.44-.025m0 7.761a1.22 1.22 0 1 0 2.44.026 1.22 1.22 0 0 0-2.44-.026m7.75-54.33a1.22 1.22 0 1 0 2.44.025 1.22 1.22 0 1 0-2.44-.025m-1.221 7.749a2.44 2.44 0 1 0 4.88.051 2.44 2.44 0 0 0-4.88-.051m0 7.761a2.44 2.44 0 1 0 4.88.052 2.44 2.44 0 0 0-4.88-.052m0 7.762a2.441 2.441 0 1 0 4.882.051 2.441 2.441 0 0 0-4.882-.052m0 7.762a2.442 2.442 0 1 0 4.883.05 2.442 2.442 0 0 0-4.883-.05m0 7.762a2.44 2.44 0 1 0 4.88.051 2.44 2.44 0 0 0-4.88-.051m0 7.76a2.44 2.44 0 1 0 4.88.053 2.44 2.44 0 0 0-4.88-.053m1.221 7.775a1.219 1.219 0 0 0 1.207 1.233 1.22 1.22 0 1 0-1.208-1.233M46.5 1.208a1.22 1.22 0 1 0 2.44.025 1.22 1.22 0 1 0-2.44-.025m-1.221 7.749a2.44 2.44 0 1 0 4.88.051 2.44 2.44 0 0 0-4.88-.051m0 7.761a2.44 2.44 0 1 0 4.88.052 2.44 2.44 0 0 0-4.88-.052m0 7.762a2.441 2.441 0 1 0 4.882.051 2.441 2.441 0 0 0-4.882-.052m0 7.762a2.442 2.442 0 1 0 4.883.05 2.442 2.442 0 0 0-4.883-.05m0 7.762a2.44 2.44 0 1 0 4.88.051 2.44 2.44 0 0 0-4.88-.051m0 7.76a2.44 2.44 0 1 0 4.88.053 2.44 2.44 0 0 0-4.88-.053m1.221 7.775a1.219 1.219 0 0 0 1.206 1.233 1.22 1.22 0 1 0-1.207-1.233m7.751 0a1.218 1.218 0 0 0 1.206 1.233 1.22 1.22 0 1 0-1.207-1.233m.001-54.33a1.22 1.22 0 1 0 2.44.026 1.22 1.22 0 0 0-2.44-.026m0 7.762a1.22 1.22 0 1 0 2.44.024 1.22 1.22 0 1 0-2.44-.024m0 7.76a1.218 1.218 0 0 0 1.206 1.233 1.22 1.22 0 1 0-1.207-1.233m.001 7.762a1.22 1.22 0 1 0 1.233-1.207 1.22 1.22 0 0 0-1.234 1.207m.001 7.762a1.22 1.22 0 1 0 1.233-1.208 1.22 1.22 0 0 0-1.234 1.208m.001 7.761a1.22 1.22 0 1 0 2.44.025 1.221 1.221 0 0 0-2.44-.025m0 7.762a1.22 1.22 0 1 0 2.44.025 1.22 1.22 0 1 0-2.44-.025"
    />
								<path
      d="M104.622 21.47a6.96 6.96 0 1 0 0 13.92 6.96 6.96 0 0 0 0-13.92m0 2.098a4.867 4.867 0 0 1 4.862 4.861 4.867 4.867 0 0 1-4.862 4.863 4.867 4.867 0 0 1-4.862-4.863 4.867 4.867 0 0 1 4.862-4.861m36.868-2.098a6.96 6.96 0 1 0 0 13.92 6.96 6.96 0 1 0 0-13.92m0 2.098a4.867 4.867 0 0 1 4.861 4.861 4.867 4.867 0 0 1-4.862 4.863 4.866 4.866 0 0 1-4.862-4.863 4.867 4.867 0 0 1 4.862-4.861m55.222-2.098a6.96 6.96 0 1 0 0 13.92 6.96 6.96 0 0 0 0-13.92m0 2.098a4.867 4.867 0 0 1 4.862 4.861 4.867 4.867 0 0 1-4.862 4.863 4.866 4.866 0 0 1-4.862-4.863 4.867 4.867 0 0 1 4.862-4.861M87.841 34.69v-5.223h-8.215v5.223H77.43V22.082h2.196v5.19h8.215v-5.19h2.197V34.69zm31.072.06V22.109h2.186v10.62l7.015-.015v2.036zm54.822 0V22.109h2.186v10.62l7.016-.015v2.036zm-17.847 0v-6.544l5.338-.005c1.722 0 2.751-.793 2.751-2.121 0-1.493-1.316-2.05-2.545-2.07l-5.544-.006v-1.895h5.515c2.907 0 4.86 1.597 4.86 3.97 0 2.513-1.927 4.073-5.028 4.073h-3.145v4.598h-2.202z"
    />
								<g transform="translate(210 21.772)">
									<path d="M4.192 12.978V2.29H.6V.337h9.335V2.29H6.379v10.69z" />
								</g>
							</g>
						</svg>
