<svg width="220" height="57" viewBox="75 0 220 57" xmlns="http://www.w3.org/2000/svg" xmlns:xlink="http://www.w3.org/1999/xlink">
  <defs>
    <path id="a" d="M9.935 12.978V.338H.601v12.64h9.334z"></path>
  </defs>
  <g fill="none" fill-rule="evenodd">
    <path d="M104.622 21.47a6.96 6.96 0 1 0 0 13.92 6.96 6.96 0 0 0 0-13.92m0 2.098a4.867 4.867 0 0 1 4.862 4.861 4.867 4.867 0 0 1-4.862 4.863 4.867 4.867 0 0 1-4.862-4.863 4.867 4.867 0 0 1 4.862-4.861m36.868-2.098a6.96 6.96 0 1 0 0 13.92 6.96 6.96 0 1 0 0-13.92m0 2.098a4.867 4.867 0 0 1 4.861 4.861 4.867 4.867 0 0 1-4.862 4.863 4.866 4.866 0 0 1-4.862-4.863 4.867 4.867 0 0 1 4.862-4.861m55.222-2.098a6.96 6.96 0 1 0 0 13.92 6.96 6.96 0 0 0 0-13.92m0 2.098a4.867 4.867 0 0 1 4.862 4.861 4.867 4.867 0 0 1-4.862 4.863 4.866 4.866 0 0 1-4.862-4.863 4.867 4.867 0 0 1 4.862-4.861M87.841 34.69v-5.223h-8.215v5.223H77.43V22.082h2.196v5.19h8.215v-5.19h2.197V34.69zm31.072.06V22.109h2.186v10.62l7.015-.015v2.036zm54.822 0V22.109h2.186v10.62l7.016-.015v2.036zm-17.847 0v-6.544l5.338-.005c1.722 0 2.751-.793 2.751-2.121 0-1.493-1.316-2.05-2.545-2.07l-5.544-.006v-1.895h5.515c2.907 0 4.86 1.597 4.86 3.97 0 2.513-1.927 4.073-5.028 4.073h-3.145v4.598h-2.202z"></path>
    <g transform="translate(210 21.772)">
      <path d="M4.192 12.978V2.29H.6V.337h9.335V2.29H6.379v10.69z"></path>
    </g>
  </g>
</svg>
